<svg id="Capa_1" data-name="Capa 1" xmlns="http://www.w3.org/2000/svg" xmlns:xlink="http://www.w3.org/1999/xlink" viewBox="0 0 841.89 595.28"><defs><style>.cls-1{font-size:61.27px;fill:#002e42;font-family:Poppins;}.cls-2{fill:#04bfbf;font-weight:700;}.cls-3{fill:url(#New_Gradient_Swatch);}.cls-4{fill:none;}</style><linearGradient id="New_Gradient_Swatch" x1="420.95" y1="133.32" x2="420.95" y2="394.94" gradientUnits="userSpaceOnUse"><stop offset="0" stop-color="#14b0b6"/><stop offset="0.82" stop-color="#86cdd3"/></linearGradient></defs><title>logo-prototipo</title><text class="cls-1" transform="translate(290.14 455.3)">MEDI<tspan class="cls-2" x="145.77" y="0">SYS</tspan></text><path class="cls-3" d="M432.31,133.32A142.17,142.17,0,0,0,290.14,275.49V394.94H409.58A142.17,142.17,0,0,0,551.75,252.77V133.32H432.31Zm-90,132.43V251.69a8.54,8.54,0,0,1,8.54-8.54h44.49V198.66a8.54,8.54,0,0,1,8.54-8.54H438a8.54,8.54,0,0,1,8.54,8.54V236l0.08,7.14h44.41a8.54,8.54,0,0,1,8.54,8.54v14.06H448.5l-11-21.08a3,3,0,0,0-5.59.51l-11,35.78-11-35.78a3,3,0,0,0-5.59-.51l-10.92,21.07H342.28Zm157.33,6.06v14.06a8.54,8.54,0,0,1-8.54,8.54H446.58V338.9a8.54,8.54,0,0,1-8.54,8.54H403.86a8.54,8.54,0,0,1-8.54-8.54V294.41H350.82a8.54,8.54,0,0,1-8.54-8.54V271.81h53a3,3,0,0,0,2.69-1.64l8.35-16.12L418,292.2a3,3,0,0,0,5.8,0L435.54,254,444,270.18a3,3,0,0,0,2.69,1.63h53Z"/><rect class="cls-4" width="841.89" height="595.28"/></svg>